<?xml version="1.0" encoding="UTF-8"?>
<svg xmlns="http://www.w3.org/2000/svg" xmlns:xlink="http://www.w3.org/1999/xlink" width="75px" height="75px" viewBox="0 0 150 150" version="1.1">
<g id="surface1">
<path style=" stroke:none;fill-rule:nonzero;fill:rgb(0%,0%,0%);fill-opacity:1;" d="M 33.667969 0.105469 C 32.730469 0.269531 32.449219 0.796875 31.746094 3.679688 C 31.066406 6.46875 31.03125 6.5625 30.878906 6.5625 C 30.808594 6.5625 29.871094 6.023438 28.816406 5.378906 C 26.613281 4.007812 26.0625 3.75 25.417969 3.75 C 24.761719 3.75 24.222656 4.007812 23.296875 4.769531 C 22.371094 5.53125 19.675781 8.285156 18.691406 9.492188 C 17.566406 10.863281 17.636719 11.308594 19.5 14.273438 C 20.4375 15.773438 20.941406 16.710938 20.847656 16.804688 C 20.824219 16.828125 19.804688 17.074219 18.574219 17.34375 C 15.914062 17.929688 15.28125 18.152344 14.800781 18.65625 C 14.378906 19.113281 14.214844 19.570312 14.109375 20.578125 C 14.0625 20.988281 14.015625 21.328125 13.992188 21.328125 C 13.628906 21.328125 10.839844 22.019531 10.171875 22.277344 C 8.378906 22.96875 6.503906 24.480469 5.390625 26.121094 C 5.121094 26.53125 4.617188 27.457031 4.277344 28.171875 L 3.65625 29.472656 L 3.585938 61.171875 C 3.492188 97.757812 3.550781 102.105469 4.183594 104.355469 C 4.582031 105.75 6.328125 107.929688 8.144531 109.277344 C 10.21875 110.824219 11.4375 111.070312 18.046875 111.269531 C 22.101562 111.398438 22.617188 111.503906 22.617188 112.242188 C 22.617188 112.699219 23.273438 114.539062 23.894531 115.78125 C 25.746094 119.53125 28.945312 122.367188 32.835938 123.726562 C 34.3125 124.253906 35.449219 124.453125 37.3125 124.535156 C 39.339844 124.617188 41.0625 124.441406 42.679688 123.984375 C 43.347656 123.808594 43.910156 123.667969 43.933594 123.703125 C 44.027344 123.796875 43.464844 126.222656 41.753906 133.066406 C 39.667969 141.46875 39.351562 142.980469 39.328125 144.609375 C 39.316406 145.78125 39.339844 145.886719 39.703125 146.625 C 40.171875 147.597656 41.53125 148.898438 42.621094 149.4375 C 43.3125 149.777344 43.464844 149.800781 44.964844 149.847656 C 46.839844 149.917969 48.058594 149.777344 48.84375 149.402344 C 49.148438 149.261719 49.769531 148.769531 50.226562 148.3125 C 51.210938 147.328125 51.28125 147.175781 52.265625 143.613281 C 53.4375 139.371094 54.574219 135.023438 59.320312 116.484375 C 60.117188 113.390625 60.574219 111.773438 60.726562 111.621094 C 60.925781 111.398438 61.125 111.386719 64.160156 111.351562 L 67.382812 111.304688 L 67.382812 123.773438 C 67.394531 137.917969 67.511719 144.527344 67.792969 145.582031 C 68.296875 147.515625 69.726562 149.144531 71.332031 149.648438 C 72.222656 149.917969 74.648438 150.070312 75.316406 149.894531 C 75.996094 149.707031 77.4375 148.722656 78.140625 147.949219 C 78.890625 147.128906 79.195312 146.496094 79.335938 145.417969 C 79.476562 144.433594 79.675781 128.847656 79.675781 118.324219 L 79.6875 111.328125 L 86.566406 111.328125 L 87.515625 115.054688 C 94.933594 144.199219 95.390625 145.945312 95.824219 146.8125 C 96.257812 147.703125 97.605469 149.050781 98.4375 149.449219 C 99.585938 150 101.320312 150.140625 103.054688 149.824219 C 106.007812 149.296875 108.269531 146.566406 108.011719 143.847656 C 107.953125 143.226562 104.964844 131.191406 102.011719 119.648438 C 100.101562 112.183594 100.019531 111.808594 100.160156 111.667969 C 100.394531 111.433594 104.589844 111.351562 119.941406 111.257812 L 135.175781 111.175781 L 136.054688 110.835938 C 139.242188 109.59375 141.339844 107.671875 142.875 104.589844 L 143.414062 103.535156 L 143.578125 51.949219 L 143.074219 51.539062 C 142.300781 50.917969 141.820312 50.707031 141.128906 50.707031 C 140.414062 50.707031 139.898438 51 139.453125 51.644531 C 139.230469 51.972656 139.160156 52.289062 139.078125 53.238281 C 139.019531 53.894531 138.925781 64.875 138.867188 77.636719 C 138.808594 91.101562 138.714844 101.191406 138.644531 101.671875 C 138.503906 102.714844 138.339844 103.113281 137.660156 104.003906 C 137.0625 104.8125 136.054688 105.597656 135.117188 106.03125 C 134.566406 106.277344 134.191406 106.335938 132.480469 106.441406 C 131.191406 106.511719 116.988281 106.558594 92.121094 106.570312 L 53.753906 106.582031 L 53.355469 105.058594 C 52.640625 102.28125 51.222656 99.820312 49.113281 97.734375 C 46.078125 94.734375 42.9375 93.363281 38.671875 93.199219 C 32.929688 92.964844 27.65625 95.777344 24.5625 100.710938 C 23.753906 102 23.15625 103.429688 22.710938 105.140625 L 22.347656 106.523438 L 18.585938 106.523438 C 13.933594 106.511719 12.785156 106.417969 11.800781 105.949219 C 10.863281 105.492188 9.691406 104.425781 8.941406 103.335938 L 8.34375 102.480469 L 8.261719 69.691406 L 8.167969 36.914062 L 17.519531 36.914062 L 20.414062 39.832031 C 23.25 42.691406 24.46875 43.757812 25.042969 43.898438 C 25.453125 44.003906 26.449219 43.546875 28.558594 42.292969 C 29.742188 41.589844 30.46875 41.226562 30.726562 41.214844 L 31.113281 41.191406 L 31.371094 42.304688 C 31.523438 42.914062 31.792969 44.074219 31.980469 44.859375 C 32.378906 46.523438 32.648438 47.003906 33.398438 47.378906 C 33.902344 47.625 34.066406 47.636719 37.652344 47.671875 C 41.613281 47.707031 42.351562 47.648438 43.019531 47.191406 C 43.699219 46.734375 43.886719 46.171875 44.707031 42.234375 C 44.824219 41.707031 44.953125 41.214844 45 41.132812 C 45.152344 40.886719 45.5625 41.074219 47.15625 42.082031 C 49.136719 43.324219 50.226562 43.851562 50.90625 43.851562 C 51.351562 43.863281 51.539062 43.792969 52.054688 43.394531 C 52.886719 42.75 56.894531 38.765625 57.585938 37.875 L 58.148438 37.171875 L 58.921875 37.101562 C 59.355469 37.054688 72.867188 36.996094 88.945312 36.960938 L 118.183594 36.902344 L 108.222656 46.863281 L 98.273438 56.824219 L 93.808594 52.40625 C 88.335938 46.980469 87 45.761719 86.332031 45.574219 C 85.558594 45.363281 83.367188 45.492188 82.828125 45.773438 C 81.867188 46.277344 75.09375 52.933594 74.414062 54.046875 C 74.132812 54.503906 74.121094 55.066406 74.355469 55.851562 C 74.636719 56.800781 75.386719 57.292969 76.570312 57.339844 C 77.121094 57.363281 77.25 57.316406 77.824219 56.882812 C 78.175781 56.613281 79.898438 54.984375 81.65625 53.261719 L 84.855469 50.121094 L 89.859375 55.101562 C 96.082031 61.277344 96.703125 61.769531 98.320312 61.746094 C 98.742188 61.734375 99.199219 61.699219 99.351562 61.664062 C 99.773438 61.535156 100.96875 60.585938 102.421875 59.226562 C 107.097656 54.855469 129.5625 32.34375 131.34375 30.257812 C 131.859375 29.648438 131.894531 29.566406 131.894531 28.957031 C 131.882812 28.488281 131.800781 28.160156 131.601562 27.785156 C 131.085938 26.859375 131.003906 26.835938 128.25 26.660156 C 125.449219 26.484375 124.957031 26.355469 124.558594 25.699219 C 124.195312 25.113281 124.21875 24.433594 124.617188 23.636719 L 124.945312 23.003906 L 131.695312 22.921875 C 139.429688 22.828125 140.578125 22.886719 141.105469 23.390625 C 141.738281 24 141.738281 23.976562 141.738281 31.699219 L 141.738281 38.847656 L 141.46875 39.398438 C 140.800781 40.746094 139.03125 40.6875 138.328125 39.292969 C 138.117188 38.882812 138.070312 38.496094 138 36.773438 C 137.894531 34.265625 137.777344 33.691406 137.296875 33.210938 C 136.628906 32.542969 135.199219 32.460938 134.460938 33.035156 C 133.675781 33.65625 126.621094 40.605469 112.933594 54.257812 L 98.308594 68.835938 L 94.300781 64.851562 C 88.148438 58.734375 87.1875 57.855469 86.4375 57.632812 C 86.167969 57.550781 85.40625 57.492188 84.726562 57.492188 C 83.730469 57.492188 83.390625 57.539062 82.96875 57.726562 C 82.3125 58.03125 80.859375 59.414062 74.414062 65.800781 C 65.085938 75.046875 63.28125 76.734375 62.402344 76.96875 C 61.910156 77.109375 61.464844 76.921875 61.066406 76.429688 C 60.515625 75.726562 60.316406 75.234375 60.445312 74.953125 C 60.632812 74.53125 62.402344 72.621094 66.199219 68.730469 C 70.921875 63.890625 71.484375 63.210938 71.484375 62.273438 C 71.484375 60.5625 69.492188 59.519531 68.050781 60.480469 C 66.574219 61.453125 58.101562 69.972656 56.695312 71.882812 C 56.167969 72.609375 55.851562 73.816406 55.851562 75.117188 C 55.839844 77.121094 56.390625 78.550781 57.65625 79.816406 C 59.015625 81.175781 60.621094 81.75 62.90625 81.65625 C 63.902344 81.621094 64.265625 81.5625 64.640625 81.351562 C 66.199219 80.542969 68.976562 77.941406 78.679688 68.214844 L 84.773438 62.121094 L 89.589844 66.890625 C 96.023438 73.265625 96.65625 73.769531 98.320312 73.757812 C 100.113281 73.746094 99.210938 74.578125 119.894531 53.929688 L 133.453125 40.394531 L 133.957031 41.367188 C 134.835938 43.066406 136.042969 44.144531 137.71875 44.742188 C 138.410156 44.976562 138.796875 45.035156 139.746094 45.046875 C 142.5 45.058594 144.480469 43.816406 145.898438 41.191406 L 146.507812 40.054688 L 146.449219 32.003906 C 146.414062 27.046875 146.332031 23.660156 146.261719 23.15625 C 146.074219 22.019531 145.476562 20.941406 144.515625 20.015625 C 143.589844 19.125 142.933594 18.714844 141.972656 18.445312 C 141.351562 18.269531 140.4375 18.234375 134.179688 18.199219 C 126.773438 18.140625 124.546875 18.222656 123.632812 18.585938 C 122.71875 18.9375 121.839844 19.570312 120.9375 20.519531 L 120.046875 21.445312 L 62.226562 21.445312 L 62.179688 21.175781 C 61.734375 19.019531 61.746094 19.054688 61.277344 18.609375 C 60.726562 18.082031 60.035156 17.847656 57.269531 17.296875 C 56.179688 17.074219 55.265625 16.863281 55.21875 16.828125 C 55.113281 16.710938 55.488281 16.019531 56.507812 14.425781 C 58.183594 11.8125 58.382812 11.167969 57.832031 10.066406 C 57.527344 9.480469 56.0625 7.875 53.835938 5.730469 C 51.222656 3.199219 50.800781 3.140625 47.917969 4.980469 C 46.195312 6.082031 45.164062 6.644531 45.058594 6.539062 C 45.023438 6.503906 44.800781 5.613281 44.578125 4.558594 C 43.804688 1.007812 43.59375 0.550781 42.585938 0.222656 C 42.070312 0.0585938 34.523438 -0.046875 33.667969 0.105469 Z M 39.84375 5.121094 C 40.195312 6.925781 40.792969 9.304688 41.003906 9.773438 C 41.296875 10.441406 42.058594 11.015625 43.300781 11.496094 C 45.070312 12.1875 46.195312 11.894531 49.042969 9.984375 L 50.449219 9.046875 L 51.597656 10.171875 C 52.21875 10.792969 52.734375 11.34375 52.734375 11.390625 C 52.734375 11.4375 52.300781 12.128906 51.785156 12.914062 C 49.839844 15.84375 49.59375 17.003906 50.507812 18.960938 C 51.363281 20.777344 51.667969 20.929688 56.308594 21.890625 L 57.363281 22.101562 L 57.398438 23.753906 C 57.421875 25.253906 57.410156 25.417969 57.222656 25.476562 C 57.105469 25.511719 56.226562 25.699219 55.253906 25.898438 C 52.96875 26.355469 52.101562 26.648438 51.550781 27.152344 C 50.578125 28.03125 50.039062 29.320312 50.039062 30.75 C 50.039062 31.792969 50.214844 32.191406 51.679688 34.429688 L 52.769531 36.117188 L 51.597656 37.289062 L 50.425781 38.449219 L 48.972656 37.523438 C 47.226562 36.398438 46.78125 36.175781 45.878906 35.917969 C 44.917969 35.636719 43.945312 35.730469 42.925781 36.199219 C 41.238281 36.996094 40.769531 37.851562 40.078125 41.425781 C 39.9375 42.128906 39.796875 42.808594 39.773438 42.914062 C 39.714844 43.101562 39.527344 43.125 38.085938 43.125 C 37.195312 43.125 36.433594 43.078125 36.398438 43.019531 C 36.363281 42.960938 36.222656 42.339844 36.082031 41.648438 C 35.355469 37.804688 34.921875 36.984375 33.257812 36.199219 C 32.484375 35.835938 32.308594 35.800781 31.347656 35.800781 C 30.398438 35.800781 30.210938 35.835938 29.472656 36.1875 C 29.027344 36.398438 28.007812 37.007812 27.210938 37.523438 L 25.769531 38.484375 L 24.597656 37.3125 C 23.964844 36.679688 23.4375 36.128906 23.4375 36.082031 C 23.4375 36.046875 23.835938 35.390625 24.339844 34.617188 C 26.15625 31.792969 26.425781 30.679688 25.746094 28.828125 C 25.089844 27.046875 24.246094 26.554688 20.449219 25.792969 L 18.808594 25.464844 L 18.738281 22.089844 L 20.613281 21.714844 C 24.058594 21.011719 24.726562 20.671875 25.464844 19.21875 C 26.496094 17.15625 26.261719 15.84375 24.257812 12.785156 C 23.8125 12.09375 23.4375 11.472656 23.4375 11.414062 C 23.4375 11.355469 23.953125 10.792969 24.585938 10.171875 L 25.722656 9.035156 L 27.410156 10.136719 C 30.011719 11.835938 30.351562 12 31.230469 11.929688 C 32.238281 11.847656 33.785156 11.109375 34.546875 10.347656 C 35.226562 9.667969 35.4375 9.105469 35.976562 6.503906 C 36.175781 5.53125 36.363281 4.675781 36.386719 4.59375 C 36.421875 4.488281 36.867188 4.453125 38.074219 4.453125 L 39.714844 4.453125 Z M 13.945312 26.355469 C 14.003906 26.484375 14.0625 26.8125 14.0625 27.09375 C 14.0625 27.902344 14.261719 28.417969 14.753906 28.863281 C 15.339844 29.390625 16.089844 29.660156 18.199219 30.105469 C 19.136719 30.316406 20.109375 30.550781 20.355469 30.632812 C 20.929688 30.832031 20.988281 31.148438 20.542969 31.640625 C 20.0625 32.167969 19.464844 32.226562 13.429688 32.226562 L 8.167969 32.226562 L 8.238281 31.453125 C 8.402344 29.390625 10.5 27.023438 12.820312 26.296875 C 13.511719 26.085938 13.804688 26.097656 13.945312 26.355469 Z M 119.964844 27.09375 C 120.878906 28.945312 122.273438 30.421875 123.363281 30.691406 C 123.960938 30.84375 123.996094 31.019531 123.550781 31.523438 C 123.269531 31.828125 123.09375 31.898438 122.34375 32.003906 C 121.757812 32.085938 110.71875 32.144531 88.710938 32.191406 L 55.957031 32.238281 L 55.558594 31.582031 C 55.324219 31.207031 55.207031 30.878906 55.265625 30.832031 C 55.324219 30.773438 56.214844 30.539062 57.246094 30.292969 C 59.777344 29.71875 60.328125 29.554688 60.914062 29.226562 C 61.535156 28.863281 61.816406 28.324219 62.003906 27.09375 L 62.144531 26.132812 L 119.484375 26.132812 Z M 41.074219 98.261719 C 44.015625 99.082031 46.78125 101.472656 48.105469 104.332031 C 48.785156 105.796875 49.019531 106.945312 49.03125 108.75 C 49.042969 110.554688 48.785156 111.808594 48.105469 113.285156 C 47.285156 115.078125 45.457031 117.175781 43.734375 118.324219 C 41.355469 119.90625 37.746094 120.339844 34.804688 119.390625 C 31.910156 118.464844 29.53125 116.367188 28.089844 113.484375 C 27.199219 111.714844 27.128906 111.363281 27.140625 108.75 C 27.140625 106.242188 27.222656 105.867188 28.03125 104.25 C 28.851562 102.621094 30.316406 100.886719 31.699219 99.902344 C 32.578125 99.28125 34.382812 98.367188 35.191406 98.144531 C 36.058594 97.898438 40.078125 97.980469 41.074219 98.261719 Z M 55.511719 111.421875 C 55.664062 111.515625 54.632812 115.710938 49.757812 134.777344 C 48.433594 139.96875 47.34375 144.257812 47.34375 144.292969 C 47.34375 144.339844 47.15625 144.585938 46.921875 144.84375 C 46.253906 145.582031 45.246094 145.628906 44.472656 144.9375 C 44.144531 144.65625 44.0625 144.503906 44.0625 144.164062 C 44.0625 142.863281 48.984375 123.480469 50.34375 119.414062 C 50.507812 118.933594 50.847656 118.21875 51.105469 117.832031 C 52.054688 116.402344 53.191406 113.824219 53.449219 112.488281 C 53.636719 111.515625 53.847656 111.328125 54.703125 111.328125 C 55.066406 111.328125 55.429688 111.375 55.511719 111.421875 Z M 74.953125 127.289062 C 74.917969 136.078125 74.847656 143.613281 74.789062 144.046875 C 74.730469 144.621094 74.636719 144.878906 74.472656 145.007812 C 73.875 145.464844 72.738281 145.3125 72.527344 144.75 C 72.304688 144.164062 72.199219 139.230469 72.117188 125.296875 L 72.035156 111.328125 L 75.023438 111.328125 Z M 95.003906 111.492188 C 95.039062 111.527344 99.128906 127.558594 100.535156 133.183594 C 102.539062 141.269531 103.289062 144.445312 103.195312 144.667969 C 103.007812 145.171875 101.800781 145.523438 100.980469 145.300781 C 100.3125 145.125 100.113281 144.925781 99.914062 144.210938 C 99.527344 142.886719 97.945312 136.816406 95.085938 125.683594 C 91.066406 110.039062 91.441406 111.574219 91.640625 111.433594 C 91.769531 111.351562 94.886719 111.398438 95.003906 111.492188 Z M 95.003906 111.492188 "/>
<path style=" stroke:none;fill-rule:nonzero;fill:rgb(0%,0%,0%);fill-opacity:1;" d="M 35.882812 14.589844 C 34.945312 14.800781 33.1875 15.632812 32.261719 16.324219 C 29.871094 18.09375 28.5 21.433594 28.757812 24.84375 C 28.898438 26.683594 29.332031 27.808594 30.46875 29.214844 C 32.179688 31.347656 34.042969 32.625 35.894531 32.929688 C 36.972656 33.117188 39.632812 33.011719 40.664062 32.753906 C 43.183594 32.097656 45.304688 30.351562 46.464844 27.949219 C 47.214844 26.402344 47.390625 25.546875 47.378906 23.730469 C 47.378906 22.441406 47.332031 22.054688 47.0625 21.175781 C 45.773438 16.886719 42.28125 14.378906 37.628906 14.425781 C 37.078125 14.425781 36.292969 14.507812 35.882812 14.589844 Z M 39.011719 19.230469 C 40.464844 19.558594 41.847656 20.671875 42.316406 21.878906 C 42.527344 22.417969 42.574219 22.804688 42.585938 23.800781 C 42.585938 24.972656 42.574219 25.078125 42.210938 25.816406 C 41.789062 26.660156 41.027344 27.421875 40.066406 27.949219 C 38.355469 28.875 36.058594 28.382812 34.59375 26.777344 C 33.222656 25.253906 33.035156 23.0625 34.136719 21.222656 C 35.097656 19.617188 37.113281 18.785156 39.011719 19.230469 Z M 39.011719 19.230469 "/>
<path style=" stroke:none;fill-rule:nonzero;fill:rgb(0%,0%,0%);fill-opacity:1;" d="M 36.972656 103.875 C 36.785156 103.96875 36.46875 104.191406 36.292969 104.378906 C 35.800781 104.90625 35.707031 105.820312 35.777344 109.277344 C 35.835938 112.429688 35.953125 113.15625 36.46875 113.636719 C 37.125 114.222656 38.203125 114.292969 39.140625 113.8125 C 40.019531 113.367188 40.230469 113.039062 40.335938 111.9375 C 40.453125 110.542969 40.441406 106.394531 40.3125 105.691406 C 40.066406 104.402344 39.246094 103.710938 37.96875 103.722656 C 37.617188 103.722656 37.171875 103.792969 36.972656 103.875 Z M 36.972656 103.875 "/>
<path style=" stroke:none;fill-rule:nonzero;fill:rgb(0%,0%,0%);fill-opacity:1;" d="M 21.363281 55.113281 C 21.023438 55.464844 20.707031 55.910156 20.660156 56.085938 C 20.613281 56.273438 20.566406 58.558594 20.566406 61.171875 C 20.566406 64.828125 20.601562 66.023438 20.71875 66.363281 C 20.941406 66.972656 21.503906 67.371094 22.335938 67.5 C 22.722656 67.558594 28.195312 67.640625 34.523438 67.6875 L 46.019531 67.769531 L 46.488281 67.335938 C 47.402344 66.515625 47.390625 66.550781 47.4375 61.898438 C 47.496094 56.566406 47.414062 55.910156 46.546875 54.890625 L 46.335938 54.632812 L 34.148438 54.550781 L 21.972656 54.457031 Z M 42.773438 61.113281 L 42.773438 63.046875 L 25.195312 63.046875 L 25.195312 59.179688 L 42.773438 59.179688 Z M 42.773438 61.113281 "/>
<path style=" stroke:none;fill-rule:nonzero;fill:rgb(0%,0%,0%);fill-opacity:1;" d="M 22.617188 71.601562 C 21.667969 71.683594 21.410156 71.777344 21.023438 72.210938 C 20.273438 73.03125 20.355469 74.390625 21.222656 75.503906 L 21.609375 76.019531 L 28.359375 76.089844 C 34.992188 76.171875 38.003906 76.089844 38.953125 75.808594 C 39.585938 75.632812 40.019531 75.164062 40.265625 74.378906 C 40.523438 73.558594 40.417969 73.113281 39.726562 72.152344 L 39.246094 71.484375 L 31.371094 71.507812 C 27.035156 71.507812 23.097656 71.554688 22.617188 71.601562 Z M 22.617188 71.601562 "/>
<path style=" stroke:none;fill-rule:nonzero;fill:rgb(0%,0%,0%);fill-opacity:1;" d="M 102.808594 82.511719 C 102.410156 82.558594 101.976562 82.652344 101.847656 82.722656 C 101.074219 83.144531 100.769531 84.691406 101.273438 85.652344 C 101.660156 86.414062 102.011719 86.613281 103.089844 86.730469 C 103.59375 86.777344 109.628906 86.824219 116.507812 86.824219 L 129 86.835938 L 129.46875 86.273438 C 130.5 85.03125 130.570312 84.257812 129.761719 83.109375 L 129.292969 82.441406 L 116.414062 82.429688 C 109.324219 82.417969 103.207031 82.453125 102.808594 82.511719 Z M 102.808594 82.511719 "/>
<path style=" stroke:none;fill-rule:nonzero;fill:rgb(0%,0%,0%);fill-opacity:1;" d="M 87.246094 92.109375 C 85.054688 92.203125 84.785156 92.296875 84.410156 93.046875 C 83.941406 93.972656 84.140625 95.320312 84.878906 96.234375 C 85.03125 96.433594 86.238281 96.445312 107.085938 96.445312 L 129.128906 96.445312 L 129.597656 95.824219 C 130.148438 95.097656 130.3125 94.710938 130.3125 94.125 C 130.3125 93.703125 129.878906 92.824219 129.386719 92.25 L 129.164062 91.992188 L 109.136719 92.015625 C 98.132812 92.015625 88.277344 92.0625 87.246094 92.109375 Z M 87.246094 92.109375 "/>
</g>
</svg>
