<?xml version="1.0" standalone="no"?>
<!DOCTYPE svg PUBLIC "-//W3C//DTD SVG 20010904//EN"
 "http://www.w3.org/TR/2001/REC-SVG-20010904/DTD/svg10.dtd">
<svg version="1.0" xmlns="http://www.w3.org/2000/svg"
 width="80.000000pt" height="50.000000pt" viewBox="0 0 80.000000 50.000000"
 preserveAspectRatio="xMidYMid meet">
<metadata>
Created by potrace 1.16, written by Peter Selinger 2001-2019
</metadata>
<g transform="translate(0.000000,512.000000) scale(0.100000,-0.100000)"
fill="#000000" stroke="none">
<path d="M1116 5098 c-8 -13 -24 -63 -35 -111 -10 -49 -21 -90 -23 -92 -2 -3
-40 19 -84 47 -117 76 -122 75 -250 -52 -57 -58 -107 -115 -110 -127 -8 -31 1
-52 56 -137 27 -42 46 -77 42 -80 -4 -2 -47 -12 -95 -22 -105 -20 -126 -35
-134 -91 l-5 -41 -62 -12 c-119 -23 -212 -96 -264 -208 l-27 -57 -3 -1239 c-3
-1370 -6 -1294 61 -1392 19 -27 56 -66 83 -86 80 -61 116 -70 322 -75 164 -5
182 -7 182 -23 0 -34 41 -136 77 -189 73 -112 179 -189 308 -226 76 -22 221
-23 290 -1 28 9 53 16 56 16 4 0 -31 -147 -77 -328 -93 -361 -100 -416 -61
-473 12 -18 42 -47 65 -64 41 -28 50 -30 131 -30 79 0 92 3 129 28 26 17 50
44 62 70 11 23 85 298 165 612 80 314 148 578 151 588 5 15 20 17 120 17 l114
0 0 -557 c0 -346 4 -575 11 -603 13 -56 42 -100 87 -131 27 -18 52 -25 106
-27 67 -4 74 -2 120 30 29 19 58 50 70 73 20 39 21 56 24 627 l2 588 118 0
117 0 144 -568 c79 -312 151 -587 158 -612 17 -53 64 -106 112 -126 47 -20
147 -18 196 5 85 39 136 126 120 208 -5 31 -254 1014 -271 1075 -5 16 36 17
598 20 l603 3 57 23 c76 31 156 105 193 179 l30 58 3 882 2 881 -26 21 c-48
38 -104 24 -123 -30 -8 -22 -11 -283 -11 -866 0 -810 -1 -835 -20 -872 -26
-51 -82 -97 -136 -110 -30 -8 -454 -11 -1396 -11 l-1353 0 -13 53 c-22 93 -70
177 -146 252 -109 108 -226 155 -384 155 -239 0 -456 -169 -516 -403 l-13 -52
-164 0 c-156 0 -166 1 -209 25 -24 14 -58 45 -75 68 l-30 44 -3 1119 -2 1119
159 0 158 0 119 -120 c90 -91 126 -120 145 -120 14 0 63 24 110 54 53 34 86
49 90 42 3 -6 14 -51 24 -99 25 -126 28 -127 217 -127 183 0 185 1 212 130 9
47 19 91 22 98 2 9 29 -4 79 -38 42 -28 92 -54 111 -57 33 -5 39 -1 144 103
61 59 110 114 110 121 0 11 188 13 1027 13 l1028 0 -340 -340 -340 -340 -185
184 c-102 101 -195 189 -207 195 -30 15 -109 14 -141 -3 -15 -8 -87 -75 -161
-150 -132 -134 -134 -136 -128 -173 8 -46 24 -62 70 -70 37 -6 39 -4 165 120
l128 127 189 -190 c203 -204 226 -219 302 -206 34 7 96 65 571 539 294 293
538 542 542 554 12 28 -6 80 -30 93 -10 6 -53 10 -94 10 -41 0 -87 5 -101 12
-32 14 -43 53 -24 87 l15 26 267 3 c256 2 267 2 287 -18 19 -19 20 -33 20
-280 0 -247 -1 -261 -20 -280 -27 -27 -62 -25 -88 3 -19 20 -22 35 -22 108 0
96 -12 124 -59 134 -17 3 -40 1 -53 -5 -13 -7 -298 -286 -633 -621 l-610 -609
-180 181 c-99 99 -192 187 -207 195 -35 18 -111 18 -146 0 -15 -8 -171 -159
-347 -335 -346 -347 -350 -350 -394 -295 -12 15 -21 34 -21 42 0 8 86 102 190
207 174 175 190 195 190 227 0 45 -34 78 -80 78 -30 0 -52 -19 -223 -187 -104
-104 -198 -206 -210 -228 -14 -28 -21 -59 -22 -100 0 -125 82 -214 205 -223
107 -8 105 -9 460 344 l325 324 190 -190 c203 -204 226 -219 302 -206 34 7 99
68 603 572 l565 564 24 -45 c81 -154 312 -151 393 4 l28 53 0 280 c0 182 -4
294 -11 319 -16 52 -61 103 -112 128 -41 20 -60 21 -337 21 -276 0 -296 -1
-336 -21 -24 -11 -57 -36 -73 -55 l-30 -34 -989 0 -989 0 -7 40 c-9 60 -31 75
-137 95 -52 10 -96 19 -98 21 -2 2 20 40 50 85 79 120 78 125 -54 256 -130
131 -136 133 -253 56 -43 -29 -81 -50 -85 -48 -3 3 -14 46 -24 96 -26 132 -20
129 -220 129 -160 0 -165 -1 -179 -22z m257 -215 c23 -108 28 -118 80 -145 71
-36 113 -30 197 25 l73 49 40 -40 39 -40 -48 -73 c-56 -85 -61 -127 -26 -196
27 -52 37 -57 145 -80 l87 -18 0 -57 0 -57 -57 -11 c-104 -21 -129 -29 -150
-52 -32 -35 -44 -66 -46 -112 -2 -36 6 -55 47 -116 l48 -73 -40 -40 -40 -40
-73 47 c-79 50 -122 58 -182 32 -55 -23 -74 -54 -93 -148 l-17 -88 -58 0 -58
0 -11 58 c-26 131 -38 153 -103 180 -57 24 -102 15 -178 -35 l-70 -47 -41 41
-40 41 46 71 c49 76 57 119 35 178 -23 62 -49 76 -181 103 l-58 11 0 58 0 57
89 18 c96 19 124 36 147 92 26 62 18 104 -32 183 l-47 73 40 40 40 40 78 -51
c43 -28 85 -51 94 -51 37 0 94 23 124 50 29 25 35 41 51 119 l19 91 56 0 56 0
18 -87z m-893 -687 c0 -59 28 -81 127 -101 114 -23 117 -25 97 -53 -15 -21
-20 -22 -220 -22 l-204 0 0 23 c1 64 69 147 142 174 52 18 58 16 58 -21z
m3624 -20 c25 -50 84 -106 114 -106 16 0 15 -10 -5 -32 -15 -17 -64 -18 -1159
-18 l-1143 0 -15 22 c-9 12 -14 24 -12 26 3 2 44 12 92 23 113 24 131 37 139
94 l7 45 978 0 978 0 26 -54z m-2653 -2428 c239 -110 300 -406 122 -598 -31
-34 -76 -70 -107 -85 -191 -93 -415 -12 -510 185 -28 58 -31 75 -31 155 0 80
3 97 31 155 36 76 99 141 169 177 75 39 93 43 185 40 66 -2 97 -9 141 -29z
m449 -433 c0 -5 -206 -815 -281 -1106 -11 -46 -48 -65 -87 -47 -15 7 -28 22
-30 32 -2 10 44 208 104 440 77 300 114 430 130 451 33 44 82 151 89 196 6 36
9 39 41 39 19 0 34 -2 34 -5z m660 -556 c0 -367 -4 -567 -10 -580 -11 -20 -45
-25 -70 -9 -13 8 -15 86 -18 580 l-2 570 50 0 50 0 0 -561z m826 -2 c78 -308
140 -565 138 -572 -13 -33 -89 -38 -108 -7 -3 5 -69 256 -146 558 -77 302
-143 557 -146 567 -5 16 1 18 57 15 l62 -3 143 -558z"/>
<path d="M1205 4617 c-135 -45 -214 -147 -223 -288 -7 -111 15 -167 92 -245
78 -77 134 -99 245 -92 92 6 158 36 218 100 142 155 94 412 -94 504 -65 32
-175 42 -238 21z m165 -167 c59 -30 85 -74 85 -142 0 -63 -19 -97 -75 -135
-96 -66 -240 15 -240 134 0 123 121 198 230 143z"/>
<path d="M1240 1560 c-18 -18 -20 -33 -20 -153 0 -147 8 -171 59 -182 38 -8
86 16 95 47 3 13 6 75 6 139 0 103 -2 119 -21 143 -26 33 -88 37 -119 6z"/>
<path d="M725 3236 c-25 -25 -25 -27 -25 -204 0 -174 1 -179 23 -200 23 -22
26 -22 438 -22 l416 0 21 23 c21 22 22 32 22 199 0 158 -2 178 -19 199 l-19
24 -416 3 -416 3 -25 -25z m735 -201 l0 -65 -300 0 -300 0 0 65 0 65 300 0
300 0 0 -65z"/>
<path d="M720 2660 c-26 -26 -26 -80 -1 -111 l19 -24 283 -3 c302 -3 328 0
348 44 16 36 14 58 -10 88 l-20 26 -300 0 c-286 0 -300 -1 -319 -20z"/>
<path d="M3470 2292 c-30 -24 -30 -86 -1 -116 21 -21 26 -21 477 -21 l456 0
24 28 c29 34 31 66 3 101 l-20 26 -459 0 c-425 0 -459 -1 -480 -18z"/>
<path d="M2890 1960 c-24 -24 -26 -77 -4 -108 l15 -22 754 0 754 0 20 26 c27
34 27 64 0 98 l-20 26 -750 0 c-736 0 -749 0 -769 -20z"/>
</g>
</svg>
