<?xml version="1.0" encoding="UTF-8"?>
<svg xmlns="http://www.w3.org/2000/svg" xmlns:xlink="http://www.w3.org/1999/xlink" width="25px" height="25px" viewBox="0 0 25 25" version="1.1">
<g id="surface1">
<path style=" stroke:none;fill-rule:nonzero;fill:rgb(0%,0%,0%);fill-opacity:1;" d="M 5.609375 0.015625 C 5.453125 0.046875 5.40625 0.132812 5.289062 0.613281 C 5.179688 1.078125 5.171875 1.09375 5.148438 1.09375 C 5.132812 1.09375 4.976562 1.003906 4.804688 0.898438 C 4.4375 0.667969 4.34375 0.625 4.234375 0.625 C 4.125 0.625 4.039062 0.667969 3.882812 0.796875 C 3.726562 0.921875 3.28125 1.382812 3.117188 1.582031 C 2.929688 1.8125 2.9375 1.882812 3.25 2.378906 C 3.40625 2.628906 3.492188 2.785156 3.476562 2.800781 C 3.46875 2.804688 3.300781 2.84375 3.09375 2.890625 C 2.652344 2.988281 2.546875 3.023438 2.46875 3.109375 C 2.398438 3.1875 2.367188 3.261719 2.351562 3.429688 C 2.34375 3.5 2.335938 3.554688 2.332031 3.554688 C 2.273438 3.554688 1.804688 3.671875 1.695312 3.710938 C 1.398438 3.828125 1.085938 4.078125 0.898438 4.351562 C 0.851562 4.421875 0.769531 4.578125 0.710938 4.695312 L 0.609375 4.914062 L 0.597656 10.195312 C 0.582031 16.292969 0.59375 17.015625 0.695312 17.390625 C 0.765625 17.625 1.054688 17.988281 1.359375 18.210938 C 1.703125 18.46875 1.90625 18.511719 3.007812 18.546875 C 3.683594 18.566406 3.769531 18.585938 3.769531 18.707031 C 3.769531 18.78125 3.878906 19.089844 3.984375 19.296875 C 4.289062 19.921875 4.824219 20.394531 5.472656 20.621094 C 5.71875 20.710938 5.90625 20.742188 6.21875 20.757812 C 6.554688 20.769531 6.84375 20.742188 7.113281 20.664062 C 7.226562 20.632812 7.320312 20.609375 7.320312 20.617188 C 7.335938 20.632812 7.242188 21.039062 6.960938 22.179688 C 6.609375 23.578125 6.558594 23.828125 6.554688 24.101562 C 6.554688 24.296875 6.554688 24.3125 6.617188 24.4375 C 6.695312 24.601562 6.921875 24.816406 7.101562 24.90625 C 7.21875 24.960938 7.242188 24.96875 7.492188 24.976562 C 7.804688 24.984375 8.007812 24.960938 8.140625 24.898438 C 8.191406 24.875 8.296875 24.796875 8.371094 24.71875 C 8.535156 24.554688 8.546875 24.53125 8.710938 23.9375 C 8.90625 23.226562 9.09375 22.503906 9.886719 19.414062 C 10.019531 18.898438 10.09375 18.628906 10.121094 18.601562 C 10.15625 18.566406 10.1875 18.5625 10.695312 18.558594 L 11.230469 18.550781 L 11.230469 20.628906 C 11.234375 22.984375 11.25 24.085938 11.296875 24.265625 C 11.382812 24.585938 11.621094 24.859375 11.890625 24.941406 C 12.039062 24.984375 12.441406 25.011719 12.554688 24.984375 C 12.664062 24.953125 12.90625 24.789062 13.023438 24.65625 C 13.148438 24.523438 13.199219 24.414062 13.222656 24.234375 C 13.246094 24.070312 13.28125 21.476562 13.28125 19.71875 L 13.28125 18.554688 L 14.429688 18.554688 L 14.585938 19.175781 C 15.820312 24.03125 15.898438 24.324219 15.96875 24.46875 C 16.042969 24.617188 16.265625 24.84375 16.40625 24.90625 C 16.597656 25 16.886719 25.023438 17.175781 24.96875 C 17.667969 24.882812 18.046875 24.429688 18 23.976562 C 17.992188 23.871094 17.492188 21.867188 17 19.941406 C 16.683594 18.695312 16.671875 18.632812 16.695312 18.609375 C 16.734375 18.570312 17.429688 18.558594 19.992188 18.542969 L 22.53125 18.53125 L 22.675781 18.472656 C 23.207031 18.265625 23.554688 17.945312 23.8125 17.429688 L 23.902344 17.257812 L 23.929688 8.65625 L 23.84375 8.589844 C 23.71875 8.484375 23.636719 8.453125 23.523438 8.453125 C 23.402344 8.453125 23.316406 8.5 23.242188 8.609375 C 23.203125 8.664062 23.195312 8.714844 23.179688 8.875 C 23.171875 8.984375 23.15625 10.8125 23.144531 12.9375 C 23.132812 15.183594 23.117188 16.867188 23.109375 16.945312 C 23.085938 17.117188 23.054688 17.1875 22.945312 17.335938 C 22.84375 17.46875 22.675781 17.601562 22.519531 17.671875 C 22.429688 17.710938 22.367188 17.722656 22.078125 17.742188 C 21.867188 17.75 19.5 17.757812 15.351562 17.761719 L 8.960938 17.765625 L 8.890625 17.507812 C 8.773438 17.046875 8.539062 16.636719 8.1875 16.289062 C 7.679688 15.789062 7.15625 15.5625 6.445312 15.53125 C 5.488281 15.492188 4.609375 15.960938 4.09375 16.785156 C 3.960938 17 3.859375 17.238281 3.785156 17.523438 L 3.726562 17.753906 L 3.097656 17.753906 C 2.320312 17.75 2.132812 17.734375 1.96875 17.65625 C 1.8125 17.582031 1.617188 17.40625 1.492188 17.222656 L 1.390625 17.078125 L 1.375 11.617188 L 1.359375 6.152344 L 2.921875 6.152344 L 3.402344 6.640625 C 3.875 7.117188 4.078125 7.292969 4.171875 7.316406 C 4.242188 7.335938 4.40625 7.257812 4.757812 7.046875 C 4.957031 6.929688 5.078125 6.871094 5.121094 6.867188 L 5.1875 6.867188 L 5.226562 7.050781 C 5.253906 7.152344 5.296875 7.34375 5.328125 7.476562 C 5.398438 7.753906 5.441406 7.835938 5.566406 7.898438 C 5.648438 7.9375 5.679688 7.9375 6.273438 7.945312 C 6.9375 7.953125 7.058594 7.941406 7.171875 7.867188 C 7.28125 7.789062 7.3125 7.695312 7.453125 7.039062 C 7.46875 6.953125 7.492188 6.867188 7.5 6.855469 C 7.523438 6.8125 7.59375 6.84375 7.859375 7.015625 C 8.1875 7.21875 8.371094 7.308594 8.484375 7.308594 C 8.558594 7.3125 8.589844 7.296875 8.675781 7.234375 C 8.8125 7.125 9.484375 6.460938 9.597656 6.3125 L 9.691406 6.195312 L 9.820312 6.183594 C 9.890625 6.175781 12.144531 6.164062 14.824219 6.160156 L 19.695312 6.148438 L 18.039062 7.8125 L 16.378906 9.46875 L 15.632812 8.734375 C 14.722656 7.828125 14.5 7.625 14.390625 7.59375 C 14.257812 7.5625 13.894531 7.582031 13.804688 7.628906 C 13.644531 7.710938 12.515625 8.820312 12.402344 9.007812 C 12.355469 9.085938 12.351562 9.179688 12.390625 9.308594 C 12.4375 9.46875 12.5625 9.546875 12.761719 9.554688 C 12.851562 9.5625 12.875 9.554688 12.96875 9.480469 C 13.03125 9.4375 13.316406 9.164062 13.609375 8.875 L 14.140625 8.351562 L 14.976562 9.183594 C 16.015625 10.210938 16.117188 10.296875 16.386719 10.289062 C 16.457031 10.289062 16.53125 10.28125 16.558594 10.277344 C 16.628906 10.257812 16.828125 10.097656 17.070312 9.871094 C 17.851562 9.140625 21.59375 5.390625 21.890625 5.042969 C 21.976562 4.941406 21.984375 4.929688 21.984375 4.828125 C 21.980469 4.75 21.96875 4.695312 21.933594 4.632812 C 21.847656 4.476562 21.835938 4.472656 21.375 4.445312 C 20.90625 4.414062 20.828125 4.390625 20.757812 4.28125 C 20.699219 4.1875 20.703125 4.070312 20.769531 3.9375 L 20.824219 3.835938 L 21.949219 3.820312 C 23.238281 3.804688 23.429688 3.8125 23.515625 3.898438 C 23.625 4 23.625 3.996094 23.625 5.28125 L 23.625 6.476562 L 23.578125 6.566406 C 23.46875 6.789062 23.171875 6.78125 23.054688 6.546875 C 23.019531 6.480469 23.011719 6.414062 23 6.128906 C 22.984375 5.710938 22.960938 5.617188 22.882812 5.535156 C 22.773438 5.421875 22.53125 5.410156 22.410156 5.507812 C 22.28125 5.609375 21.101562 6.765625 18.820312 9.042969 L 16.382812 11.472656 L 15.71875 10.808594 C 14.691406 9.789062 14.53125 9.640625 14.40625 9.605469 C 14.359375 9.59375 14.234375 9.582031 14.121094 9.582031 C 13.953125 9.582031 13.898438 9.589844 13.828125 9.621094 C 13.71875 9.671875 13.476562 9.902344 12.402344 10.96875 C 10.847656 12.507812 10.546875 12.789062 10.398438 12.828125 C 10.320312 12.851562 10.242188 12.820312 10.179688 12.738281 C 10.085938 12.621094 10.054688 12.539062 10.074219 12.492188 C 10.105469 12.421875 10.398438 12.101562 11.03125 11.453125 C 11.820312 10.648438 11.914062 10.535156 11.914062 10.378906 C 11.914062 10.09375 11.582031 9.921875 11.34375 10.078125 C 11.09375 10.242188 9.683594 11.664062 9.449219 11.980469 C 9.359375 12.101562 9.308594 12.304688 9.308594 12.519531 C 9.304688 12.851562 9.398438 13.09375 9.609375 13.304688 C 9.835938 13.53125 10.101562 13.625 10.484375 13.609375 C 10.648438 13.601562 10.710938 13.59375 10.773438 13.558594 C 11.03125 13.421875 11.496094 12.992188 13.113281 11.367188 L 14.128906 10.351562 L 14.929688 11.148438 C 16.003906 12.210938 16.109375 12.296875 16.386719 12.292969 C 16.6875 12.289062 16.535156 12.429688 19.984375 8.988281 L 22.242188 6.734375 L 22.328125 6.894531 C 22.472656 7.179688 22.671875 7.359375 22.953125 7.457031 C 23.070312 7.496094 23.132812 7.507812 23.289062 7.507812 C 23.75 7.507812 24.078125 7.304688 24.316406 6.867188 L 24.417969 6.675781 L 24.40625 5.335938 C 24.402344 4.507812 24.390625 3.945312 24.375 3.859375 C 24.34375 3.671875 24.246094 3.492188 24.085938 3.335938 C 23.929688 3.1875 23.820312 3.117188 23.664062 3.074219 C 23.558594 3.046875 23.40625 3.039062 22.363281 3.03125 C 21.128906 3.023438 20.757812 3.039062 20.605469 3.097656 C 20.453125 3.15625 20.304688 3.261719 20.15625 3.421875 L 20.007812 3.574219 L 10.371094 3.574219 L 10.363281 3.53125 C 10.289062 3.171875 10.289062 3.175781 10.210938 3.101562 C 10.121094 3.015625 10.007812 2.976562 9.546875 2.882812 C 9.363281 2.84375 9.210938 2.8125 9.203125 2.804688 C 9.1875 2.785156 9.25 2.671875 9.417969 2.40625 C 9.695312 1.96875 9.730469 1.859375 9.640625 1.679688 C 9.585938 1.578125 9.34375 1.3125 8.972656 0.953125 C 8.539062 0.53125 8.46875 0.523438 7.984375 0.828125 C 7.699219 1.015625 7.527344 1.109375 7.507812 1.089844 C 7.503906 1.085938 7.46875 0.9375 7.429688 0.757812 C 7.300781 0.167969 7.265625 0.09375 7.097656 0.0390625 C 7.011719 0.0078125 5.753906 -0.0078125 5.609375 0.015625 Z M 6.640625 0.851562 C 6.699219 1.15625 6.796875 1.550781 6.835938 1.628906 C 6.882812 1.742188 7.007812 1.835938 7.21875 1.914062 C 7.511719 2.03125 7.699219 1.984375 8.171875 1.664062 L 8.40625 1.507812 L 8.601562 1.695312 C 8.703125 1.796875 8.789062 1.890625 8.789062 1.898438 C 8.789062 1.90625 8.71875 2.023438 8.632812 2.152344 C 8.304688 2.640625 8.265625 2.835938 8.417969 3.160156 C 8.5625 3.460938 8.609375 3.488281 9.382812 3.648438 L 9.5625 3.683594 L 9.566406 3.960938 C 9.570312 4.210938 9.570312 4.234375 9.539062 4.246094 C 9.515625 4.25 9.371094 4.28125 9.210938 4.316406 C 8.828125 4.390625 8.683594 4.441406 8.59375 4.523438 C 8.429688 4.671875 8.339844 4.886719 8.339844 5.125 C 8.339844 5.296875 8.367188 5.367188 8.613281 5.738281 L 8.796875 6.019531 L 8.601562 6.214844 L 8.40625 6.40625 L 8.164062 6.253906 C 7.871094 6.066406 7.796875 6.03125 7.648438 5.984375 C 7.484375 5.9375 7.324219 5.953125 7.15625 6.03125 C 6.875 6.164062 6.796875 6.308594 6.679688 6.90625 C 6.65625 7.023438 6.632812 7.132812 6.628906 7.152344 C 6.617188 7.183594 6.585938 7.1875 6.347656 7.1875 C 6.199219 7.1875 6.070312 7.179688 6.066406 7.171875 C 6.0625 7.160156 6.039062 7.054688 6.015625 6.941406 C 5.890625 6.300781 5.820312 6.164062 5.542969 6.03125 C 5.414062 5.972656 5.382812 5.96875 5.226562 5.96875 C 5.066406 5.96875 5.035156 5.972656 4.914062 6.03125 C 4.835938 6.066406 4.667969 6.167969 4.535156 6.253906 L 4.296875 6.414062 L 4.101562 6.21875 C 3.992188 6.113281 3.90625 6.023438 3.90625 6.015625 C 3.90625 6.007812 3.972656 5.898438 4.054688 5.769531 C 4.359375 5.296875 4.40625 5.113281 4.289062 4.804688 C 4.179688 4.507812 4.039062 4.425781 3.40625 4.296875 L 3.132812 4.242188 L 3.125 3.679688 L 3.4375 3.617188 C 4.007812 3.5 4.121094 3.445312 4.242188 3.203125 C 4.414062 2.859375 4.375 2.640625 4.042969 2.132812 C 3.96875 2.015625 3.90625 1.914062 3.90625 1.902344 C 3.90625 1.890625 3.992188 1.796875 4.097656 1.695312 L 4.289062 1.507812 L 4.570312 1.6875 C 5 1.972656 5.058594 2 5.203125 1.988281 C 5.375 1.976562 5.632812 1.851562 5.757812 1.726562 C 5.871094 1.609375 5.90625 1.515625 5.996094 1.085938 C 6.03125 0.921875 6.0625 0.78125 6.0625 0.765625 C 6.070312 0.75 6.144531 0.742188 6.34375 0.742188 L 6.617188 0.742188 Z M 2.324219 4.390625 C 2.335938 4.414062 2.34375 4.46875 2.34375 4.515625 C 2.34375 4.648438 2.375 4.734375 2.460938 4.8125 C 2.554688 4.898438 2.679688 4.945312 3.03125 5.015625 C 3.1875 5.054688 3.351562 5.09375 3.390625 5.105469 C 3.488281 5.140625 3.5 5.191406 3.421875 5.273438 C 3.34375 5.359375 3.242188 5.371094 2.238281 5.371094 L 1.359375 5.371094 L 1.375 5.242188 C 1.398438 4.898438 1.75 4.503906 2.136719 4.382812 C 2.25 4.347656 2.300781 4.351562 2.324219 4.390625 Z M 19.992188 4.515625 C 20.148438 4.824219 20.378906 5.070312 20.5625 5.117188 C 20.660156 5.140625 20.664062 5.171875 20.59375 5.253906 C 20.546875 5.304688 20.515625 5.316406 20.390625 5.335938 C 20.292969 5.347656 18.453125 5.359375 14.785156 5.367188 L 9.328125 5.375 L 9.257812 5.265625 C 9.21875 5.203125 9.203125 5.148438 9.210938 5.140625 C 9.21875 5.128906 9.367188 5.089844 9.539062 5.046875 C 9.960938 4.953125 10.054688 4.925781 10.152344 4.871094 C 10.257812 4.8125 10.304688 4.71875 10.335938 4.515625 L 10.359375 4.355469 L 19.914062 4.355469 Z M 6.84375 16.375 C 7.335938 16.515625 7.796875 16.914062 8.015625 17.390625 C 8.132812 17.632812 8.171875 17.824219 8.171875 18.125 C 8.171875 18.425781 8.132812 18.632812 8.015625 18.882812 C 7.882812 19.179688 7.578125 19.53125 7.289062 19.71875 C 6.890625 19.984375 6.289062 20.054688 5.800781 19.898438 C 5.320312 19.742188 4.921875 19.394531 4.679688 18.914062 C 4.53125 18.617188 4.523438 18.5625 4.523438 18.125 C 4.523438 17.707031 4.539062 17.644531 4.671875 17.375 C 4.808594 17.101562 5.054688 16.8125 5.28125 16.648438 C 5.429688 16.546875 5.730469 16.394531 5.867188 16.359375 C 6.007812 16.316406 6.679688 16.328125 6.84375 16.375 Z M 9.25 18.570312 C 9.277344 18.585938 9.105469 19.285156 8.292969 22.460938 C 8.070312 23.328125 7.890625 24.042969 7.890625 24.046875 C 7.890625 24.054688 7.859375 24.097656 7.820312 24.140625 C 7.710938 24.265625 7.539062 24.273438 7.414062 24.15625 C 7.359375 24.109375 7.34375 24.085938 7.34375 24.027344 C 7.34375 23.8125 8.164062 20.578125 8.390625 19.902344 C 8.417969 19.820312 8.476562 19.703125 8.515625 19.640625 C 8.675781 19.398438 8.867188 18.96875 8.90625 18.75 C 8.9375 18.585938 8.976562 18.554688 9.117188 18.554688 C 9.179688 18.554688 9.238281 18.5625 9.25 18.570312 Z M 12.492188 21.214844 C 12.484375 22.679688 12.476562 23.9375 12.464844 24.007812 C 12.453125 24.101562 12.4375 24.148438 12.414062 24.167969 C 12.3125 24.242188 12.125 24.21875 12.085938 24.125 C 12.050781 24.027344 12.03125 23.203125 12.019531 20.882812 L 12.007812 18.554688 L 12.503906 18.554688 Z M 15.835938 18.582031 C 15.839844 18.585938 16.523438 21.257812 16.757812 22.195312 C 17.089844 23.546875 17.214844 24.074219 17.199219 24.109375 C 17.167969 24.195312 16.96875 24.253906 16.828125 24.21875 C 16.71875 24.1875 16.6875 24.15625 16.652344 24.035156 C 16.585938 23.8125 16.324219 22.804688 15.847656 20.945312 C 15.179688 18.339844 15.242188 18.59375 15.273438 18.570312 C 15.296875 18.558594 15.8125 18.566406 15.835938 18.582031 Z M 15.835938 18.582031 "/>
<path style=" stroke:none;fill-rule:nonzero;fill:rgb(0%,0%,0%);fill-opacity:1;" d="M 5.980469 2.429688 C 5.824219 2.46875 5.53125 2.605469 5.375 2.71875 C 4.976562 3.015625 4.75 3.570312 4.792969 4.140625 C 4.816406 4.445312 4.890625 4.632812 5.078125 4.867188 C 5.363281 5.226562 5.671875 5.4375 5.984375 5.488281 C 6.164062 5.519531 6.605469 5.5 6.777344 5.460938 C 7.195312 5.351562 7.550781 5.058594 7.742188 4.65625 C 7.867188 4.398438 7.898438 4.257812 7.898438 3.953125 C 7.898438 3.742188 7.890625 3.675781 7.84375 3.53125 C 7.628906 2.8125 7.046875 2.398438 6.273438 2.40625 C 6.179688 2.40625 6.046875 2.417969 5.980469 2.429688 Z M 6.5 3.203125 C 6.742188 3.257812 6.976562 3.445312 7.054688 3.648438 C 7.085938 3.734375 7.09375 3.800781 7.097656 3.96875 C 7.097656 4.164062 7.09375 4.179688 7.035156 4.304688 C 6.964844 4.445312 6.835938 4.570312 6.679688 4.65625 C 6.390625 4.8125 6.007812 4.730469 5.765625 4.460938 C 5.539062 4.210938 5.507812 3.84375 5.6875 3.539062 C 5.851562 3.269531 6.1875 3.132812 6.5 3.203125 Z M 6.5 3.203125 "/>
<path style=" stroke:none;fill-rule:nonzero;fill:rgb(0%,0%,0%);fill-opacity:1;" d="M 6.164062 17.3125 C 6.132812 17.328125 6.078125 17.367188 6.046875 17.398438 C 5.96875 17.484375 5.953125 17.636719 5.960938 18.210938 C 5.972656 18.738281 5.992188 18.859375 6.078125 18.9375 C 6.1875 19.039062 6.367188 19.046875 6.523438 18.96875 C 6.671875 18.894531 6.703125 18.839844 6.722656 18.65625 C 6.742188 18.421875 6.742188 17.734375 6.71875 17.617188 C 6.679688 17.398438 6.539062 17.285156 6.328125 17.289062 C 6.269531 17.289062 6.195312 17.296875 6.164062 17.3125 Z M 6.164062 17.3125 "/>
<path style=" stroke:none;fill-rule:nonzero;fill:rgb(0%,0%,0%);fill-opacity:1;" d="M 3.5625 9.1875 C 3.503906 9.242188 3.453125 9.320312 3.445312 9.347656 C 3.4375 9.378906 3.429688 9.757812 3.429688 10.195312 C 3.429688 10.804688 3.433594 11.003906 3.453125 11.0625 C 3.492188 11.164062 3.585938 11.226562 3.722656 11.25 C 3.789062 11.257812 4.699219 11.273438 5.753906 11.28125 L 7.671875 11.296875 L 7.75 11.222656 C 7.898438 11.085938 7.898438 11.09375 7.90625 10.316406 C 7.914062 9.429688 7.902344 9.320312 7.757812 9.148438 L 7.722656 9.105469 L 5.691406 9.09375 L 3.664062 9.078125 Z M 7.128906 10.1875 L 7.128906 10.507812 L 4.199219 10.507812 L 4.199219 9.863281 L 7.128906 9.863281 Z M 7.128906 10.1875 "/>
<path style=" stroke:none;fill-rule:nonzero;fill:rgb(0%,0%,0%);fill-opacity:1;" d="M 3.769531 11.933594 C 3.609375 11.945312 3.570312 11.960938 3.503906 12.035156 C 3.378906 12.171875 3.390625 12.398438 3.539062 12.585938 L 3.601562 12.671875 L 4.726562 12.679688 C 5.832031 12.695312 6.335938 12.679688 6.492188 12.632812 C 6.597656 12.605469 6.671875 12.527344 6.710938 12.398438 C 6.753906 12.257812 6.734375 12.1875 6.621094 12.023438 L 6.539062 11.914062 L 5.226562 11.917969 C 4.507812 11.917969 3.851562 11.925781 3.769531 11.933594 Z M 3.769531 11.933594 "/>
<path style=" stroke:none;fill-rule:nonzero;fill:rgb(0%,0%,0%);fill-opacity:1;" d="M 17.132812 13.75 C 17.070312 13.757812 16.996094 13.773438 16.976562 13.789062 C 16.84375 13.859375 16.796875 14.117188 16.878906 14.273438 C 16.945312 14.402344 17 14.4375 17.179688 14.453125 C 17.265625 14.460938 18.273438 14.46875 19.417969 14.46875 L 21.5 14.472656 L 21.578125 14.378906 C 21.75 14.171875 21.761719 14.042969 21.625 13.851562 L 21.546875 13.742188 L 19.402344 13.738281 C 18.21875 13.734375 17.203125 13.742188 17.132812 13.75 Z M 17.132812 13.75 "/>
<path style=" stroke:none;fill-rule:nonzero;fill:rgb(0%,0%,0%);fill-opacity:1;" d="M 14.539062 15.351562 C 14.175781 15.367188 14.132812 15.382812 14.070312 15.507812 C 13.992188 15.664062 14.023438 15.886719 14.148438 16.039062 C 14.171875 16.070312 14.375 16.074219 17.847656 16.074219 L 21.523438 16.074219 L 21.601562 15.96875 C 21.691406 15.851562 21.71875 15.785156 21.71875 15.6875 C 21.71875 15.617188 21.648438 15.46875 21.5625 15.375 L 21.527344 15.332031 L 18.1875 15.335938 C 16.355469 15.335938 14.710938 15.34375 14.539062 15.351562 Z M 14.539062 15.351562 "/>
</g>
</svg>
